<?xml version="1.0" standalone="no"?>
<!DOCTYPE svg PUBLIC "-//W3C//DTD SVG 20010904//EN"
 "http://www.w3.org/TR/2001/REC-SVG-20010904/DTD/svg10.dtd">
<svg version="1.0" xmlns="http://www.w3.org/2000/svg"
 width="300.000000pt" height="189.000000pt" viewBox="0 0 300.000000 189.000000"
 preserveAspectRatio="xMidYMid meet">

<g transform="translate(0.000000,189.000000) scale(0.100000,-0.100000)"
fill="#000000" stroke="none">
<path d="M1970 1871 c-93 -49 -97 -196 -7 -251 29 -18 52 -20 280 -20 136 0
247 -3 247 -8 0 -4 -191 -198 -425 -432 l-424 -424 -3 394 -3 395 -23 33 c-13
18 -36 39 -52 47 -37 19 -103 19 -138 1 -15 -8 -334 -322 -708 -698 -535 -535
-684 -691 -693 -720 -25 -76 29 -170 105 -184 89 -16 64 -37 667 564 l557 557
0 -402 0 -402 31 -36 c38 -43 93 -60 147 -46 30 9 136 110 602 576 311 311
568 565 572 565 5 0 8 -100 8 -222 0 -204 2 -226 20 -255 55 -91 201 -87 251
7 18 32 19 65 19 507 l0 473 -498 0 c-466 0 -500 -1 -532 -19z"/>
</g>
</svg>
