<?xml version="1.0" encoding="UTF-8" standalone="no"?>
<!-- Created with Inkscape (http://www.inkscape.org/) -->

<svg
   width="45"
   height="45"
   viewBox="0 0 11.90625 11.90625"
   version="1.1"
   id="svg25661"
   inkscape:version="1.2.1 (9c6d41e410, 2022-07-14)"
   sodipodi:docname="cow-air-off.svg"
   xmlns:inkscape="http://www.inkscape.org/namespaces/inkscape"
   xmlns:sodipodi="http://sodipodi.sourceforge.net/DTD/sodipodi-0.dtd"
   xmlns="http://www.w3.org/2000/svg"
   xmlns:svg="http://www.w3.org/2000/svg">
  <sodipodi:namedview
     id="namedview25663"
     pagecolor="#ffffff"
     bordercolor="#000000"
     borderopacity="0.25"
     inkscape:showpageshadow="2"
     inkscape:pageopacity="0.0"
     inkscape:pagecheckerboard="0"
     inkscape:deskcolor="#d1d1d1"
     inkscape:document-units="mm"
     showgrid="false"
     inkscape:zoom="11.930303"
     inkscape:cx="21.625603"
     inkscape:cy="28.666497"
     inkscape:window-width="1920"
     inkscape:window-height="1017"
     inkscape:window-x="-8"
     inkscape:window-y="-8"
     inkscape:window-maximized="1"
     inkscape:current-layer="layer1" />
  <defs
     id="defs25658" />
  <g
     inkscape:label="Слой 1"
     inkscape:groupmode="layer"
     id="layer1">
    <g
       id="g18575"
       transform="matrix(0,0.26458333,-0.26458333,0,61.59042,-138.12673)"
       style="fill:none;fill-opacity:1">
      <path
         d="m 556.85631,201.10233 c -0.42087,-1.462 -1.5949,-2.89075 -2.95719,-3.5996 -0.99682,-0.52055 -1.39556,-0.6313 -2.43666,-0.731 l -0.86391,-0.0775 -0.12183,-0.57593 c -0.43195,-1.92717 -2.01577,-3.6439 -3.97618,-4.3306 -0.94143,-0.33227 -2.5474,-0.39872 -3.44453,-0.14397 -2.18192,0.62023 -3.96509,2.41449 -4.43028,4.47457 l -0.12182,0.57593 -0.77531,0.0664 c -1.04112,0.0997 -1.62813,0.26582 -2.51418,0.731 -1.27371,0.67561 -2.4145,2.00471 -2.90184,3.41131 -0.25473,0.71992 -0.34334,2.44773 -0.16613,3.25626 0.45411,2.11546 2.14869,3.90972 4.24199,4.51887 1.63921,0.47626 2.51418,0.2769 2.51418,-0.56486 0,-0.54271 -0.31012,-0.76421 -1.22939,-0.85282 -1.57276,-0.1772 -2.91292,-1.11865 -3.57745,-2.53633 -0.32121,-0.66455 -0.34336,-0.80852 -0.34336,-1.88286 0,-1.07435 0.0221,-1.21834 0.34336,-1.88288 0.43195,-0.90821 1.21831,-1.6835 2.14868,-2.1376 0.6867,-0.34336 0.7753,-0.35444 2.07116,-0.35444 1.67243,0 1.70565,-0.0332 1.81641,-1.21831 0.19936,-2.11547 1.63921,-3.67714 3.72142,-4.06479 1.61706,-0.29904 3.40024,0.47625 4.36382,1.8718 0.43197,0.63131 0.76423,1.65028 0.76423,2.35912 0,0.35442 0.0665,0.60916 0.21044,0.78637 0.19936,0.25475 0.27689,0.26581 1.58383,0.26581 1.318,0 1.39552,0.0111 2.10437,0.3655 2.25944,1.10757 3.16765,3.65499 2.11547,5.9255 -0.65348,1.37339 -2.01579,2.33697 -3.57747,2.50311 -0.64237,0.0664 -0.85281,0.13291 -1.00787,0.33227 -0.28797,0.35442 -0.26582,0.83067 0.0443,1.12972 0.22152,0.21043 0.33227,0.22151 1.07435,0.1772 2.49203,-0.16613 4.71824,-2.03792 5.37171,-4.51887 0.22151,-0.8196 0.19936,-2.42559 -0.0444,-3.2784 z"
         id="path1401"
         style="fill:#000000;fill-opacity:1;stroke-width:0.0110756" />
      <path
         d="m 551.75042,202.3428 c -0.16613,-0.43194 -0.39871,-0.53162 -1.12971,-0.47625 -1.39555,0.0886 -2.68032,0.97466 -3.33379,2.29267 l -0.35441,0.731 -0.0331,10.15641 c -0.0221,10.05673 -0.0221,10.16748 0.19935,10.389 0.29905,0.29904 0.89713,0.28796 1.17402,-0.0111 0.19937,-0.22152 0.21044,-0.59809 0.26582,-10.27824 l 0.0554,-10.04565 0.31011,-0.46518 c 0.40981,-0.62024 1.01898,-1.00788 1.80534,-1.12973 0.48734,-0.0775 0.71992,-0.1772 0.90822,-0.38764 0.2658,-0.31012 0.27689,-0.42088 0.1329,-0.7753 z"
         id="path1405"
         style="fill:#000000;fill-opacity:1;stroke-width:0.0110756" />
      <path
         d="m 545.34867,202.43141 c -0.0775,-0.5427 -0.94142,-0.77529 -1.35124,-0.36549 -0.2215,0.22151 -0.2215,0.36549 -0.2215,13.39051 v 13.18006 l 0.28797,0.22152 c 0.37657,0.29905 0.63131,0.28798 0.98573,-0.0111 l 0.28797,-0.25473 0.0221,-12.95856 c 0.0111,-7.12167 0.0111,-13.06932 -0.0111,-13.20223 z"
         id="path1407"
         style="fill:#000000;fill-opacity:1;stroke-width:0.0110756" />
      <path
         d="m 541.94844,204.45827 c -0.64239,-1.57276 -2.10438,-2.61387 -3.67713,-2.61387 -0.65346,0 -0.9525,0.25475 -0.9525,0.78638 0,0.44302 0.3101,0.74207 0.86389,0.81961 0.74208,0.11075 1.16295,0.28796 1.56168,0.64238 0.8196,0.70885 0.75315,-0.0775 0.8196,10.7988 l 0.0554,9.7909 0.32119,0.27691 c 0.34335,0.29903 0.731,0.27687 1.0965,-0.0444 0.17721,-0.16614 0.18827,-0.78639 0.18827,-9.99027 v -9.81306 z"
         id="path1409"
         style="fill:#000000;fill-opacity:1;stroke-width:0.0110756" />
    </g>
  </g>
</svg>
