<?xml version="1.0" standalone="no"?>
<!DOCTYPE svg PUBLIC "-//W3C//DTD SVG 20010904//EN"
 "http://www.w3.org/TR/2001/REC-SVG-20010904/DTD/svg10.dtd">
<svg version="1.0" xmlns="http://www.w3.org/2000/svg"
 width="79.000000pt" height="79.000000pt" viewBox="0 0 79.000000 79.000000"
 preserveAspectRatio="xMidYMid meet">

<g transform="translate(0.000000,79.000000) scale(0.100000,-0.100000)"
fill="#000000" stroke="none">
<path d="M0 705 l0 -85 30 0 c30 0 30 1 30 55 l0 55 55 0 c54 0 55 0 55 30 l0
30 -85 0 -85 0 0 -85z"/>
<path d="M620 760 c0 -30 1 -30 55 -30 l55 0 0 -55 c0 -54 0 -55 30 -55 l30 0
0 85 0 85 -85 0 -85 0 0 -30z"/>
<path d="M310 534 c0 -156 5 -185 39 -211 9 -7 28 -13 42 -13 23 0 27 -5 32
-38 8 -47 61 -100 111 -112 92 -20 186 52 186 143 0 93 -58 152 -150 152 -30
0 -63 -4 -72 -9 -17 -8 -18 1 -18 118 l0 126 -85 0 -85 0 0 -156z m118 -25
c-3 -110 -6 -134 -20 -142 -12 -8 -21 -7 -32 2 -13 11 -16 37 -16 142 l0 129
35 0 36 0 -3 -131z m218 -123 c85 -85 5 -217 -112 -184 -43 11 -77 59 -77 108
0 66 46 109 117 110 30 0 45 -7 72 -34z"/>
<path d="M582 344 c-22 -45 -23 -45 -40 -25 -12 15 -21 18 -31 12 -12 -8 -8
-19 19 -61 l34 -52 38 76 c21 42 36 81 33 86 -13 21 -32 8 -53 -36z"/>
<path d="M0 85 l0 -85 85 0 85 0 0 30 c0 30 -1 30 -55 30 l-55 0 0 55 c0 54 0
55 -30 55 l-30 0 0 -85z"/>
<path d="M730 115 l0 -55 -55 0 c-54 0 -55 0 -55 -30 l0 -30 85 0 85 0 0 85 0
85 -30 0 c-30 0 -30 -1 -30 -55z"/>
</g>
</svg>
