<?xml version="1.0" standalone="no"?>
<!DOCTYPE svg PUBLIC "-//W3C//DTD SVG 20010904//EN"
 "http://www.w3.org/TR/2001/REC-SVG-20010904/DTD/svg10.dtd">
<svg version="1.0" xmlns="http://www.w3.org/2000/svg"
 width="116.000000pt" height="131.000000pt" viewBox="0 0 116.000000 131.000000"
 preserveAspectRatio="xMidYMid meet">

<g transform="translate(0.000000,131.000000) scale(0.100000,-0.100000)"
fill="#000000" stroke="none">
<path d="M757 1303 c-10 -3 -57 -27 -104 -54 -46 -27 -86 -49 -88 -49 -2 0 1
16 7 36 11 41 1 58 -28 52 -13 -2 -25 -23 -39 -69 l-20 -66 -137 -78 c-153
-88 -187 -118 -281 -254 l-65 -94 26 -47 c15 -25 67 -117 117 -203 l90 -156
48 -1 c79 0 239 21 276 36 20 8 154 83 299 166 274 157 302 179 302 239 0 23
-36 89 -227 419 -64 111 -107 141 -176 123z m91 -365 c84 -144 149 -265 145
-269 -5 -4 -106 -64 -227 -134 -133 -76 -237 -130 -265 -136 -25 -5 -88 -10
-140 -12 l-94 -2 -99 169 -98 168 69 97 c38 53 77 103 86 111 19 16 229 139
232 136 6 -5 -99 -342 -107 -344 -41 -14 -52 -70 -20 -102 48 -48 122 6 98 70
-8 20 3 67 49 224 l58 198 75 44 c41 24 77 44 80 44 3 0 74 -118 158 -262z"/>
<path d="M123 288 c-44 -62 -83 -143 -83 -173 0 -97 125 -147 194 -79 38 39
42 87 12 148 -14 28 -40 73 -59 99 l-34 47 -30 -42z m93 -134 c35 -83 -41
-147 -111 -92 -23 18 -26 27 -22 57 2 20 19 60 37 89 l32 53 25 -36 c13 -20
31 -52 39 -71z"/>
</g>
</svg>
