<?xml version="1.0" encoding="UTF-8" standalone="no"?>
<!-- Created with Inkscape (http://www.inkscape.org/) -->

<svg
   width="45"
   height="45"
   viewBox="0 0 11.906258 11.90625"
   version="1.1"
   id="svg3374"
   sodipodi:docname="gate-close.svg"
   inkscape:version="1.2.1 (9c6d41e410, 2022-07-14)"
   xml:space="preserve"
   xmlns:inkscape="http://www.inkscape.org/namespaces/inkscape"
   xmlns:sodipodi="http://sodipodi.sourceforge.net/DTD/sodipodi-0.dtd"
   xmlns="http://www.w3.org/2000/svg"
   xmlns:svg="http://www.w3.org/2000/svg"><sodipodi:namedview
     id="namedview3376"
     pagecolor="#ffffff"
     bordercolor="#000000"
     borderopacity="0.25"
     inkscape:showpageshadow="2"
     inkscape:pageopacity="0.0"
     inkscape:pagecheckerboard="0"
     inkscape:deskcolor="#d1d1d1"
     inkscape:document-units="mm"
     showgrid="false"
     inkscape:zoom="5.9651515"
     inkscape:cx="49.873"
     inkscape:cy="43.418847"
     inkscape:window-width="1920"
     inkscape:window-height="1017"
     inkscape:window-x="1912"
     inkscape:window-y="-8"
     inkscape:window-maximized="1"
     inkscape:current-layer="layer1" /><defs
     id="defs3371" /><g
     inkscape:label="Слой 1"
     inkscape:groupmode="layer"
     id="layer1"><g
       id="g37447-1-7-5-0"
       inkscape:label="створка"
       style="fill:none;fill-opacity:1;stroke-width:2;stroke-dasharray:none"
       transform="matrix(-0.14687293,0,0,0.14687293,74.129775,-19.853695)"><rect
         style="fill:#ffffff;fill-opacity:1;stroke:#000000;stroke-width:2;stroke-dasharray:none;stroke-opacity:1"
         id="rect31786-2-9-1-5"
         width="9.8275423"
         height="64.827538"
         x="-499.4321"
         y="139.0493"
         transform="scale(-1,1)" /><ellipse
         style="fill:#ffffff;fill-opacity:1;stroke:#000000;stroke-width:2.3077;stroke-dasharray:none;stroke-opacity:1"
         id="path30280-3-5-1-6"
         cx="494.51831"
         cy="206.20995"
         rx="6.346149"
         ry="6.3461485" /></g><g
       id="g18991"
       transform="matrix(0.11641667,0,0,0.11641667,5.6730854,0.42201034)"><path
         fill="none"
         stroke="#000000"
         stroke-width="2"
         stroke-linecap="round"
         stroke-miterlimit="10"
         d="m 36,21 c 0,0 0,-4.9 0,-6 C 36,8.9 31.1,4 25,4 18.9,4 14,8.9 14,15 c 0,1.1 0,6 0,6"
         id="path18976"
         style="stroke:#ed1c24;stroke-opacity:1" /><rect
         fill="none"
         width="50"
         height="50"
         id="rect18978"
         x="0"
         y="0" /><path
         d="M 41,20 H 9 c -1.7,0 -3,1.3 -3,3 v 24 c 0,1.7 1.3,3 3,3 h 32 c 1.7,0 3,-1.3 3,-3 V 23 c 0,-1.7 -1.3,-3 -3,-3 z M 27,35.2 V 38 c 0,1.1 -0.9,2 -2,2 -1.1,0 -2,-0.9 -2,-2 v -2.8 c -0.6,-0.5 -1,-1.3 -1,-2.2 0,-1.7 1.3,-3 3,-3 1.7,0 3,1.3 3,3 0,0.9 -0.4,1.7 -1,2.2 z"
         id="path18980"
         style="fill:#ed1c24;fill-opacity:1" /></g></g></svg>
