<?xml version="1.0" standalone="no"?>
<!DOCTYPE svg PUBLIC "-//W3C//DTD SVG 20010904//EN"
 "http://www.w3.org/TR/2001/REC-SVG-20010904/DTD/svg10.dtd">
<svg version="1.0" xmlns="http://www.w3.org/2000/svg"
 width="351.000000pt" height="406.000000pt" viewBox="0 0 351.000000 406.000000"
 preserveAspectRatio="xMidYMid meet">

<g transform="translate(0.000000,406.000000) scale(0.100000,-0.100000)"
fill="#000000" stroke="none">
<path d="M1375 4042 c-16 -10 -36 -30 -42 -43 -23 -43 -673 -2453 -673 -2493
0 -30 7 -45 33 -71 19 -19 47 -37 62 -41 38 -9 103 14 127 46 23 32 680 2438
681 2495 0 50 -16 81 -56 105 -40 25 -93 25 -132 2z"/>
<path d="M2272 3690 c-386 -54 -706 -331 -814 -705 -20 -70 -23 -102 -23 -255
0 -210 11 -263 90 -425 122 -251 331 -429 601 -511 83 -26 102 -28 269 -28
159 -1 189 2 259 22 444 128 732 523 713 977 -10 251 -101 464 -273 639 -125
126 -299 226 -463 265 -98 23 -270 33 -359 21z m273 -345 c89 -23 213 -87 277
-145 156 -139 238 -359 208 -556 -80 -527 -708 -739 -1080 -365 -200 201 -244
480 -118 739 48 98 178 227 279 275 41 20 102 43 135 51 79 19 226 20 299 1z"/>
<path d="M384 3650 c-46 -10 -89 -44 -108 -84 -14 -30 -16 -117 -16 -841 0
-804 0 -807 21 -845 28 -50 83 -80 146 -80 58 0 105 26 140 79 l23 34 0 810 0
809 -22 40 c-36 64 -111 96 -184 78z"/>
<path d="M85 1282 c-31 -11 -50 -25 -68 -52 -15 -22 -17 -75 -17 -578 0 -596
-1 -589 52 -626 20 -14 196 -16 1703 -16 1507 0 1683 2 1703 16 53 37 52 30
52 624 0 490 -2 555 -16 579 -35 60 89 56 -1724 58 -916 0 -1674 -2 -1685 -5z
m2200 -253 c131 -49 197 -168 130 -234 -41 -42 -80 -30 -121 40 -43 75 -75 95
-149 95 -73 0 -105 -10 -134 -41 -32 -34 -28 -82 9 -112 16 -14 38 -28 47 -31
10 -3 70 -19 133 -36 175 -47 239 -90 269 -179 28 -86 -2 -197 -72 -258 -84
-74 -261 -101 -390 -59 -136 44 -232 202 -165 273 21 23 51 29 83 17 9 -4 32
-38 51 -76 45 -89 74 -108 169 -108 54 0 78 5 105 21 48 30 59 48 60 94 0 76
-32 100 -187 139 -133 34 -184 57 -231 104 -86 86 -75 233 24 308 85 65 256
85 369 43z m-1341 -9 c26 -27 29 -64 8 -91 -19 -23 -27 -24 -136 -27 l-116 -4
0 -301 c0 -366 -4 -388 -78 -403 -26 -5 -36 -1 -62 24 l-30 30 0 326 0 326
-109 0 c-94 0 -112 3 -135 21 -35 28 -35 70 1 99 26 20 34 21 335 18 257 -3
310 -5 322 -18z m731 -5 c14 -13 25 -31 25 -40 0 -9 -11 -27 -25 -40 -24 -25
-25 -25 -230 -25 l-205 0 0 -105 0 -105 194 0 c164 0 197 -3 210 -16 21 -20
20 -63 -1 -86 -14 -16 -35 -18 -210 -18 l-193 0 0 -119 0 -120 221 -3 c205 -3
222 -4 235 -22 20 -28 17 -63 -6 -86 -19 -19 -33 -20 -295 -20 l-276 0 -24 25
-25 24 0 355 c0 371 2 394 44 414 13 7 123 11 279 11 l258 1 24 -25z m1540 13
c46 -21 46 -95 0 -116 -15 -7 -72 -12 -130 -12 l-105 0 0 -326 0 -326 -30 -30
c-26 -25 -36 -29 -62 -24 -74 15 -78 37 -78 404 l0 302 -99 0 c-55 0 -111 4
-126 10 -51 19 -53 100 -3 120 35 14 602 12 633 -2z"/>
</g>
</svg>
