<?xml version="1.0" encoding="UTF-8" standalone="no"?>
<svg
   version="1.0"
   width="1306.667"
   height="354.33301"
   viewBox="0 0 980.0003 265.74976"
   preserveAspectRatio="xMidYMid"
   id="svg64"
   sodipodi:docname="WhatsApp-Image-2023-12-15-at-16.18.58.svg"
   inkscape:version="1.2.1 (9c6d41e410, 2022-07-14)"
   xmlns:inkscape="http://www.inkscape.org/namespaces/inkscape"
   xmlns:sodipodi="http://sodipodi.sourceforge.net/DTD/sodipodi-0.dtd"
   xmlns="http://www.w3.org/2000/svg"
   xmlns:svg="http://www.w3.org/2000/svg">
  <defs
     id="defs68">
    <pattern
       id="EMFhbasepattern"
       patternUnits="userSpaceOnUse"
       width="6"
       height="6"
       x="0"
       y="0" />
  </defs>
  <sodipodi:namedview
     id="namedview66"
     pagecolor="#ffffff"
     bordercolor="#000000"
     borderopacity="0.25"
     inkscape:showpageshadow="2"
     inkscape:pageopacity="0.0"
     inkscape:pagecheckerboard="0"
     inkscape:deskcolor="#d1d1d1"
     inkscape:document-units="pt"
     showgrid="false"
     inkscape:zoom="0.79042969"
     inkscape:cx="1041.8384"
     inkscape:cy="323.87447"
     inkscape:window-width="1920"
     inkscape:window-height="1017"
     inkscape:window-x="-8"
     inkscape:window-y="-8"
     inkscape:window-maximized="1"
     inkscape:current-layer="svg64" />
  <g
     transform="matrix(0.1,0,0,-0.1,-124.28597,306.00088)"
     fill="#000000"
     stroke="none"
     id="g62"
     style="fill:#000000;fill-opacity:1">
    <path
       d="m 3279,2764 c -105,-120 -385,-442 -549,-632 -70,-81 -112,-122 -125,-122 -46,1 -1102,-62 -1124,-66 -19,-4 9,-25 155,-113 318,-192 499,-303 511,-313 10,-8 -2,-32 -51,-102 -35,-50 -113,-163 -173,-251 -60,-88 -170,-248 -244,-355 -74,-107 -139,-202 -144,-210 -9,-15 138,139 250,260 33,36 100,108 150,160 166,175 450,481 453,489 1,4 -86,75 -194,157 -157,119 -192,150 -177,156 10,4 167,23 348,43 182,20 346,38 367,42 31,5 56,27 194,177 87,94 161,172 165,174 9,4 19,-91 19,-195 0,-50 4,-94 9,-97 5,-3 64,1 131,9 158,20 1149,134 1535,177 165,18 284,34 265,35 -19,2 -417,-19 -885,-46 -467,-27 -854,-45 -858,-41 -5,4 10,175 33,380 22,205 39,377 37,383 -2,6 -46,-39 -98,-99 z"
       id="path36"
       style="fill:#ed1c24;fill-opacity:1" />
    <path
       d="m 2587,1448 c -31,-161 -75,-390 -97,-508 -23,-118 -44,-225 -47,-238 l -5,-23 255,3 c 340,4 327,-5 383,275 40,197 39,228 -3,244 l -27,10 33,20 c 43,26 52,53 91,255 37,188 35,219 -16,243 -16,7 -108,11 -267,11 h -243 z m 377,103 c 8,-12 -42,-251 -55,-268 -11,-13 -119,-19 -131,-8 -4,5 26,173 47,263 5,20 11,22 70,22 35,0 66,-4 69,-9 z m -95,-440 c 12,-8 12,-24 -4,-113 -24,-140 -22,-138 -100,-138 -55,0 -65,3 -65,18 0,25 38,221 45,232 8,12 105,13 124,1 z"
       id="path38"
       style="fill:#2a569a;fill-opacity:1" />
    <path
       d="m 3386,1717 c -22,-12 -47,-38 -57,-57 -18,-35 -179,-828 -179,-882 0,-39 25,-74 62,-87 18,-6 110,-11 215,-11 163,0 188,2 223,20 79,40 73,18 206,709 65,340 72,331 -233,331 -186,0 -200,-2 -237,-23 z m 268,-165 c 3,-5 -25,-161 -62,-348 l -68,-339 -67,-3 c -59,-3 -67,-1 -67,15 0,25 128,661 135,673 8,12 122,13 129,2 z"
       id="path40"
       style="fill:#2a569a;fill-opacity:1" />
    <path
       d="m 4235,1724 c -82,-42 -97,-70 -204,-369 -40,-110 -110,-304 -157,-431 -46,-127 -84,-234 -84,-237 0,-4 49,-7 109,-7 94,0 110,2 116,18 4,9 45,127 92,262 205,592 198,576 239,586 14,4 28,4 31,0 3,-3 -2,-43 -11,-88 -39,-196 -146,-754 -146,-765 0,-10 28,-13 109,-13 105,0 109,1 114,23 3,12 17,85 31,162 14,77 57,300 96,495 38,195 70,360 70,367 0,21 -365,18 -405,-3 z"
       id="path42"
       style="fill:#2a569a;fill-opacity:1" />
    <path
       d="m 4746,1723 c -6,-22 -159,-795 -181,-918 -9,-49 -19,-98 -21,-108 -5,-16 20,-17 467,-15 l 473,3 38,185 c 20,102 64,331 98,510 34,179 63,333 66,343 5,15 -5,17 -109,17 h -114 l -23,-122 c -12,-68 -50,-265 -84,-438 l -61,-315 -69,-3 c -67,-3 -68,-2 -63,20 10,42 167,839 167,849 0,6 -43,9 -111,7 l -112,-3 -86,-435 -86,-435 -68,-3 -67,-3 6,33 c 4,18 42,211 85,428 44,217 79,400 79,407 0,10 -27,13 -109,13 -96,0 -110,-2 -115,-17 z"
       id="path44"
       style="fill:#2a569a;fill-opacity:1" />
    <path
       d="m 5781,1691 c -6,-27 -27,-136 -46,-243 -20,-106 -60,-317 -90,-468 -30,-152 -55,-281 -55,-288 0,-9 53,-12 213,-12 h 212 l 36,93 37,92 -119,3 c -117,3 -119,3 -114,25 3,12 14,65 24,117 l 18,95 95,3 95,3 17,82 c 9,45 16,85 16,90 0,4 -43,7 -95,7 -94,0 -95,0 -91,23 3,12 12,60 21,107 26,139 15,130 155,130 h 120 v 95 95 h -219 -219 z"
       id="path46"
       style="fill:#2a569a;fill-opacity:1" />
    <path
       d="m 6356,1732 c -2,-4 -12,-48 -21,-97 -42,-232 -165,-867 -180,-932 l -5,-23 h 237 c 131,0 254,4 272,10 40,11 85,51 100,89 21,51 79,390 72,423 -11,54 -52,68 -203,68 h -128 l 1,28 c 0,15 10,77 22,137 l 22,110 148,3 147,3 v 94 95 h -239 c -132,0 -242,-4 -245,-8 z m 248,-620 c 7,-11 -35,-224 -47,-239 -6,-8 -34,-13 -73,-13 -57,0 -64,2 -64,20 0,18 36,197 45,228 5,13 130,18 139,4 z"
       id="path48"
       style="fill:#2a569a;fill-opacity:1" />
    <path
       d="m 7005,1498 c -83,-425 -155,-803 -155,-811 0,-4 50,-6 112,-5 l 111,3 39,205 c 22,112 44,208 51,212 7,5 37,7 67,6 49,-3 55,-5 52,-23 -1,-11 -20,-107 -41,-212 l -38,-193 h 113 c 108,0 112,1 117,22 3,13 49,241 101,508 53,267 99,495 101,508 5,22 4,22 -109,22 h -114 l -44,-227 -44,-228 -67,-3 c -37,-2 -67,-1 -67,1 0,2 20,104 45,227 25,123 45,225 45,227 0,2 -51,3 -114,3 h -114 z"
       id="path50"
       style="fill:#2a569a;fill-opacity:1" />
    <path
       d="m 7740,1735 c 0,-9 -201,-1019 -206,-1037 -5,-16 5,-18 111,-18 h 116 l 68,143 c 38,78 83,174 101,212 18,39 34,65 37,58 4,-10 -58,-341 -73,-395 -5,-16 4,-18 98,-18 h 104 l 38,193 c 21,105 65,332 97,502 32,171 61,323 65,338 l 6,28 -107,-3 -107,-3 -96,-207 c -53,-114 -98,-206 -100,-204 -2,2 13,88 32,191 20,103 36,196 36,206 0,17 -9,19 -110,19 -60,0 -110,-2 -110,-5 z"
       id="path52"
       style="fill:#2a569a;fill-opacity:1" />
    <path
       d="m 8376,1603 c -14,-76 -60,-312 -101,-524 -41,-213 -75,-390 -75,-393 0,-3 51,-6 113,-6 h 113 l 33,173 c 53,278 50,267 75,267 22,0 23,-3 29,-137 4,-75 7,-174 7,-220 v -83 h 120 120 v 28 c 0,15 -5,143 -11,285 l -11,258 27,62 c 16,34 66,140 112,236 45,95 83,178 83,183 0,5 -50,7 -112,6 l -112,-3 -101,-225 c -82,-184 -104,-225 -120,-225 -15,0 -19,6 -17,25 4,34 72,391 78,413 5,15 -5,17 -109,17 h -114 z"
       id="path54"
       style="fill:#2a569a;fill-opacity:1" />
    <path
       d="m 9326,1731 c -8,-13 -66,-165 -66,-173 0,-5 63,-8 140,-8 106,0 142,-3 146,-13 2,-7 -2,-46 -11,-87 -17,-85 -3,-71 -193,-191 -105,-66 -142,-95 -159,-124 -13,-24 -35,-108 -58,-229 -20,-105 -39,-199 -41,-208 -5,-17 10,-18 224,-18 h 230 l 36,90 c 20,50 36,92 36,95 0,3 -61,5 -135,5 -74,0 -135,3 -135,8 1,4 9,45 18,92 l 17,85 160,107 c 88,58 165,114 172,125 14,21 73,317 73,367 0,26 -7,40 -31,60 l -31,26 h -193 c -107,0 -196,-4 -199,-9 z"
       id="path56"
       style="fill:#2a569a;fill-opacity:1" />
    <path
       d="m 10315,1724 c -44,-22 -60,-40 -78,-82 -25,-58 -167,-792 -167,-864 0,-25 8,-46 24,-65 l 24,-28 h 215 c 202,0 217,1 243,21 60,44 63,56 150,490 46,231 84,429 84,441 0,35 -22,73 -51,89 -42,21 -402,20 -444,-2 z m 250,-176 c 2,-7 -26,-164 -63,-348 l -68,-335 -58,-3 c -33,-2 -63,1 -67,5 -6,6 110,633 126,681 3,8 25,12 65,12 40,0 62,-4 65,-12 z"
       id="path58"
       style="fill:#2a569a;fill-opacity:1" />
    <path
       d="m 9829,880 c -93,-28 -138,-121 -89,-183 62,-78 220,-6 220,101 0,35 -37,82 -64,82 -8,0 -20,2 -28,4 -7,2 -25,1 -39,-4 z"
       id="path60"
       style="fill:#2a569a;fill-opacity:1" />
  </g>
</svg>
