<?xml version="1.0" encoding="UTF-8" standalone="no"?>
<svg
   version="1.0"
   width="288.000000pt"
   height="357.000000pt"
   viewBox="0 0 288.000000 357.000000"
   preserveAspectRatio="xMidYMid meet"
   id="svg6"
   sodipodi:docname="milk-backet-white.svg"
   inkscape:version="1.2.1 (9c6d41e410, 2022-07-14)"
   xmlns:inkscape="http://www.inkscape.org/namespaces/inkscape"
   xmlns:sodipodi="http://sodipodi.sourceforge.net/DTD/sodipodi-0.dtd"
   xmlns="http://www.w3.org/2000/svg"
   xmlns:svg="http://www.w3.org/2000/svg">
  <defs
     id="defs10" />
  <sodipodi:namedview
     id="namedview8"
     pagecolor="#ffffff"
     bordercolor="#000000"
     borderopacity="0.25"
     inkscape:showpageshadow="2"
     inkscape:pageopacity="0.0"
     inkscape:pagecheckerboard="0"
     inkscape:deskcolor="#d1d1d1"
     inkscape:document-units="pt"
     showgrid="false"
     inkscape:zoom="1.7584034"
     inkscape:cx="126.2509"
     inkscape:cy="238.28435"
     inkscape:window-width="1920"
     inkscape:window-height="1017"
     inkscape:window-x="-8"
     inkscape:window-y="-8"
     inkscape:window-maximized="1"
     inkscape:current-layer="svg6" />
  <g
     transform="translate(0.000000,357.000000) scale(0.100000,-0.100000)"
     fill="#000000"
     stroke="none"
     id="g4"
     style="fill:#ffffff;fill-opacity:1">
    <path
       d="M726 3443 c-170 -340 -318 -679 -360 -827 l-26 -88 0 -570 0 -570 -152 -159 c-84 -88 -158 -170 -165 -182 -17 -30 -16 -62 2 -97 20 -38 43 -50 97 -50 41 0 47 4 131 91 l87 92 0 -359 c0 -209 5 -378 11 -404 23 -102 104 -211 194 -264 97 -58 69 -56 1065 -56 996 0 968 -2 1065 56 47 27 123 104 153 154 54 92 52 55 52 1230 0 1199 5 1108 -66 1298 -53 142 -131 315 -265 590 l-117 242 -821 0 -821 0 -64 -127z m1656 -250 c114 -237 225 -492 259 -594 l29 -87 0 -916 0 -916 -1060 0 -1060 0 1 313 0 312 498 520 498 519 65 1 c89 1 150 38 190 114 80 153 -20 321 -192 321 -134 0 -226 -98 -218 -231 l3 -57 -420 -439 -420 -440 -3 441 c-2 297 1 456 8 486 23 91 132 345 288 673 l71 147 691 0 691 0 81 -167z"
       id="path2"
       style="fill:#ffffff;fill-opacity:1" />
  </g>
</svg>
