<?xml version="1.0" encoding="UTF-8" standalone="no"?>
<svg
   version="1.0"
   width="255pt"
   height="357pt"
   viewBox="0 0 255 357"
   preserveAspectRatio="xMidYMid"
   id="svg6"
   sodipodi:docname="milk-amount.svg"
   xml:space="preserve"
   inkscape:version="1.2.1 (9c6d41e410, 2022-07-14)"
   xmlns:inkscape="http://www.inkscape.org/namespaces/inkscape"
   xmlns:sodipodi="http://sodipodi.sourceforge.net/DTD/sodipodi-0.dtd"
   xmlns="http://www.w3.org/2000/svg"
   xmlns:svg="http://www.w3.org/2000/svg"><defs
     id="defs10" /><sodipodi:namedview
     id="namedview8"
     pagecolor="#ffffff"
     bordercolor="#000000"
     borderopacity="0.25"
     inkscape:showpageshadow="2"
     inkscape:pageopacity="0.0"
     inkscape:pagecheckerboard="0"
     inkscape:deskcolor="#d1d1d1"
     inkscape:document-units="pt"
     showgrid="false"
     inkscape:zoom="0.62168947"
     inkscape:cx="-418.21522"
     inkscape:cy="130.29013"
     inkscape:window-width="1920"
     inkscape:window-height="1017"
     inkscape:window-x="-8"
     inkscape:window-y="-8"
     inkscape:window-maximized="1"
     inkscape:current-layer="svg6" /><g
     transform="matrix(0.1,0,0,-0.1,0,357)"
     fill="#000000"
     stroke="none"
     id="g4"><path
       d="M 331,3328 C 197,3053 119,2880 66,2738 -5,2548 0,2639 0,1440 0,265 -2,302 52,210 82,160 158,83 205,56 302,-2 274,0 1270,0 c 996,0 968,-2 1065,56 47,27 123,104 153,154 54,92 52,55 52,1230 0,1199 5,1108 -66,1298 -53,142 -131,315 -265,590 l -117,242 H 1270 448 Z m 409,18 c 0,-8 -45,-195 -100,-416 L 540,2529 V 2045 1560 H 375 210 v 476 476 l 29,87 c 34,102 145,357 259,594 l 81,167 h 80 c 63,0 81,-3 81,-14 z m 1302,-153 c 114,-237 225,-492 259,-594 l 29,-87 v -476 -476 h -649 -648 l -6,30 c -11,53 -55,70 -180,70 H 740 l 2,163 3,162 117,5 c 104,4 119,7 141,28 32,30 40,74 22,118 -21,50 -62,64 -186,64 H 738 l 4,153 c 1,83 7,158 11,165 6,9 47,12 148,12 158,0 180,7 199,66 9,25 9,43 0,68 -18,56 -44,66 -175,66 -63,0 -115,3 -115,6 0,5 49,203 71,287 l 10,37 h 118 c 65,0 132,5 149,11 40,14 62,49 62,99 0,33 -6,48 -29,71 -29,29 -31,29 -141,29 -101,0 -111,2 -106,18 3,9 8,29 12,45 l 6,27 h 500 499 z m -1024,-1910 2,-163 H 880 740 v 158 c 0,87 3,162 7,166 4,3 66,5 137,4 l 131,-3 z m 0,-535 -3,-163 H 880 745 l -3,163 -2,162 h 140 140 z m 0,-480 -3,-103 H 880 745 l -3,103 -3,102 h 141 141 z"
       id="path2" /></g></svg>
