<?xml version="1.0" standalone="no"?>
<!DOCTYPE svg PUBLIC "-//W3C//DTD SVG 20010904//EN"
 "http://www.w3.org/TR/2001/REC-SVG-20010904/DTD/svg10.dtd">
<svg version="1.0" xmlns="http://www.w3.org/2000/svg"
 width="90.000000pt" height="114.000000pt" viewBox="0 0 90.000000 114.000000"
 preserveAspectRatio="xMidYMid meet">

<g transform="translate(0.000000,114.000000) scale(0.100000,-0.100000)"
fill="#000000" stroke="none">
<path d="M80 921 l0 -219 -29 -11 c-44 -19 -51 -47 -51 -207 l0 -146 30 -28
30 -28 0 -141 0 -141 180 0 180 0 0 139 0 139 30 30 c17 17 30 40 30 51 0 19
6 21 75 21 95 0 168 27 233 85 143 129 143 361 0 490 -27 24 -74 53 -104 64
-66 25 -178 28 -231 6 -19 -8 -39 -15 -44 -15 -5 0 -9 29 -9 65 l0 65 -160 0
-160 0 0 -219z m230 65 c0 -36 -5 -68 -10 -71 -22 -13 -62 -110 -67 -161 -6
-51 -7 -54 -34 -54 l-29 0 0 168 c0 93 3 172 7 175 3 4 35 7 70 7 l63 0 0 -64z
m361 -63 c178 -91 178 -335 0 -425 -100 -51 -198 -35 -276 45 -99 102 -101
226 -5 329 76 83 180 101 281 51z"/>
<path d="M510 841 l0 -81 -81 0 -80 0 3 -52 3 -53 78 -3 77 -3 0 -75 0 -75 53
3 52 3 3 73 3 72 74 0 75 0 0 55 0 55 -75 0 -74 0 -3 78 -3 77 -52 3 -53 3 0
-80z"/>
</g>
</svg>
