<?xml version="1.0" standalone="no"?>
<!DOCTYPE svg PUBLIC "-//W3C//DTD SVG 20010904//EN"
 "http://www.w3.org/TR/2001/REC-SVG-20010904/DTD/svg10.dtd">
<svg version="1.0" xmlns="http://www.w3.org/2000/svg"
 width="106.000000pt" height="248.000000pt" viewBox="0 0 106.000000 248.000000"
 preserveAspectRatio="xMidYMid meet">

<g transform="translate(0.000000,248.000000) scale(0.100000,-0.100000)"
fill="#000000" stroke="none">
<path d="M180 2016 l0 -463 -39 -7 c-49 -8 -98 -48 -122 -101 -17 -36 -19 -71
-19 -355 0 -285 2 -319 19 -356 20 -44 60 -81 98 -90 l23 -6 0 -319 0 -319
390 0 390 0 0 319 0 319 23 6 c38 9 78 46 98 90 17 37 19 71 19 356 0 284 -2
319 -19 355 -24 53 -73 93 -122 101 l-39 7 0 463 0 464 -350 0 -350 0 0 -464z
m490 -106 l0 -360 -140 0 -140 0 0 360 0 360 140 0 140 0 0 -360z"/>
</g>
</svg>
